Coordinates
version=1
nRows=26
nColumns=22
inDegrees=yes

Units are S.I. units (second, meters, Newtons, ...)
If the header above contains a line with 'inDegrees', this indicates whether rotational values are in degrees (yes) or radians (no).

endheader
time	pelvis_tilt	pelvis_list	pelvis_rotation	pelvis_tx	pelvis_ty	pelvis_tz	hip_flexion_r	hip_adduction_r	hip_rotation_r	knee_angle_r	ankle_angle_r	subtalar_angle_r	hip_flexion_l	hip_adduction_l	hip_rotation_l	knee_angle_l	ankle_angle_l	subtalar_angle_l	lumbar_extension	lumbar_bending	lumbar_rotation
      0.01000000	      1.61969998	     -1.79005617	      0.03479707	     -1.14951427	      1.07970710	     -0.56986031	     -4.53803021	      2.26135888	     -1.77205680	     -8.09134821	     11.41184626	     -3.36529032	     -4.04513476	     -1.27571373	     -3.20181123	    -10.66315048	     14.33200210	     -1.04699563	     -1.94237074	     -0.76860653	     -5.11131373
      0.02000000	      1.60111676	     -1.79076182	      0.03933819	     -1.14955596	      1.07969367	     -0.56981832	     -4.53860337	      2.26540520	     -1.77565576	     -8.04896792	     11.39974333	     -3.36501433	     -4.02791731	     -1.27861905	     -3.20525318	    -10.65283756	     14.33638341	     -1.04586737	     -1.95921211	     -0.77502513	     -5.07659080
      0.03000000	      1.58043994	     -1.78929726	      0.04879201	     -1.14960615	      1.07968269	     -0.56977357	     -4.53873238	      2.26770032	     -1.78434581	     -8.00360057	     11.38412143	     -3.36446305	     -4.01034157	     -1.28027655	     -3.21019935	    -10.63556275	     14.33377764	     -1.04345878	     -1.97964819	     -0.78420474	     -5.04364613
      0.04000000	      1.55808097	     -1.78625374	      0.05947426	     -1.14965807	      1.07967122	     -0.56972498	     -4.54041036	      2.26819872	     -1.79677654	     -7.95068528	     11.36423344	     -3.36313662	     -3.99335216	     -1.27999922	     -3.21481029	    -10.61355499	     14.32772497	     -1.03932135	     -1.99941088	     -0.79505867	     -5.01204875
      0.05000000	      1.53474281	     -1.78188601	      0.07310088	     -1.14971012	      1.07966031	     -0.56967657	     -4.54346231	      2.26770207	     -1.81074382	     -7.89385058	     11.34089034	     -3.36054337	     -3.97714476	     -1.27854371	     -3.21874536	    -10.58684530	     14.31904315	     -1.03304390	     -2.01878841	     -0.80648036	     -4.98623696
      0.06000000	      1.51148499	     -1.77785344	      0.08925623	     -1.14976814	      1.07965074	     -0.56961824	     -4.54633489	      2.26856105	     -1.82698860	     -7.83798656	     11.32096559	     -3.35693036	     -3.96071489	     -1.27865419	     -3.22230810	    -10.55899497	     14.31016085	     -1.02646116	     -2.03778195	     -0.81891529	     -4.96761913
      0.07000000	      1.48788438	     -1.77372900	      0.10768461	     -1.14982112	      1.07963934	     -0.56956499	     -4.54985893	      2.26920494	     -1.84564090	     -7.77975512	     11.29881040	     -3.35167848	     -3.94421239	     -1.27826167	     -3.22375233	    -10.53196868	     14.29919110	     -1.01882703	     -2.05404125	     -0.82996818	     -4.95720679
      0.08000000	      1.46485444	     -1.76985452	      0.13009080	     -1.14987522	      1.07962842	     -0.56950750	     -4.55392941	      2.27099766	     -1.86610737	     -7.72225183	     11.27629398	     -3.34477471	     -3.92570155	     -1.27932260	     -3.22211286	    -10.50835082	     14.28712767	     -1.01069657	     -2.06822665	     -0.83991229	     -4.95595167
      0.09000000	      1.44227834	     -1.76742811	      0.16312939	     -1.14993747	      1.07961872	     -0.56946905	     -4.55708556	      2.27468904	     -1.89073538	     -7.66777565	     11.24285142	     -3.33130130	     -3.90241980	     -1.28211831	     -3.20451239	    -10.49218573	     14.27222905	     -0.99770468	     -2.08269403	     -0.84585308	     -4.97777720
      0.10000000	      1.41986502	     -1.76694112	      0.19133974	     -1.14999027	      1.07960286	     -0.56941426	     -4.55765969	      2.28050471	     -1.91877558	     -7.61875464	     11.22857012	     -3.31893813	     -3.87637691	     -1.28773995	     -3.19467726	    -10.48383041	     14.26737616	     -0.98984721	     -2.09363214	     -0.84985126	     -4.99467352
      0.11000000	      1.40077302	     -1.76649148	      0.20627467	     -1.15003459	      1.07958813	     -0.56932298	     -4.55799022	      2.28705449	     -1.93738612	     -7.57648004	     11.22624192	     -3.31341622	     -3.85468944	     -1.29343021	     -3.19510466	    -10.47850887	     14.26383752	     -0.98769990	     -2.10512863	     -0.85742982	     -4.99636508
      0.12000000	      1.38026096	     -1.76592748	      0.22909263	     -1.15007587	      1.07957315	     -0.56924971	     -4.55895402	      2.29338783	     -1.95459992	     -7.53118193	     11.21339351	     -3.30434090	     -3.82464347	     -1.29957036	     -3.18968026	    -10.48419939	     14.25689531	     -0.98511380	     -2.11327102	     -0.86135807	     -5.01621773
      0.13000000	      1.36948655	     -1.76437112	      0.23124320	     -1.15013032	      1.07956882	     -0.56915165	     -4.55150971	      2.29652511	     -1.95720157	     -7.51986807	     11.21333928	     -3.30343014	     -3.81400681	     -1.30189210	     -3.19049452	    -10.47586797	     14.25706752	     -0.98501705	     -2.13438057	     -0.86375569	     -5.01747110
      0.14000000	      1.34082141	     -1.76968792	      0.27472158	     -1.15016676	      1.07954379	     -0.56911110	     -4.54665006	      2.31048167	     -1.98392025	     -7.47109548	     11.18209963	     -3.27934025	     -3.76154859	     -1.31626562	     -3.16365328	    -10.50389175	     14.25095867	     -0.98240168	     -2.12881503	     -0.85673084	     -5.07403231
      0.15000000	      1.33212535	     -1.76803273	      0.27243887	     -1.15019697	      1.07954316	     -0.56899582	     -4.54155320	      2.31422734	     -1.98731941	     -7.46096998	     11.18352823	     -3.27828270	     -3.75268322	     -1.31925027	     -3.16296971	    -10.50004633	     14.25086369	     -0.98237931	     -2.14507523	     -0.86029882	     -5.07366040
      0.16000000	      1.32067880	     -1.76660155	      0.28672800	     -1.15022448	      1.07953608	     -0.56890769	     -4.54583388	      2.31953633	     -1.99315704	     -7.42880404	     11.18414155	     -3.26927724	     -3.72386241	     -1.32483753	     -3.15693337	    -10.52514737	     14.24394969	     -0.98158063	     -2.15545957	     -0.86372584	     -5.07671120
      0.17000000	      1.31406847	     -1.76428008	      0.28221347	     -1.15023952	      1.07953763	     -0.56879601	     -4.54185774	      2.32217635	     -1.99483947	     -7.42195789	     11.18381555	     -3.26811202	     -3.71710958	     -1.32681395	     -3.15637280	    -10.52251590	     14.24414256	     -0.98149022	     -2.16781273	     -0.86501632	     -5.08066726
      0.18000000	      1.30423898	     -1.76200086	      0.29271736	     -1.15026418	      1.07953558	     -0.56871160	     -4.54451277	      2.32603296	     -1.98898262	     -7.39546132	     11.17331934	     -3.25440792	     -3.68808520	     -1.33129676	     -3.15375777	    -10.55295208	     14.24013110	     -0.97930500	     -2.17576568	     -0.86366390	     -5.10856353
      0.19000000	      1.29916834	     -1.75986652	      0.28807225	     -1.15026950	      1.07953613	     -0.56859764	     -4.54151512	      2.32921840	     -1.99096857	     -7.39013899	     11.17302806	     -3.25318290	     -3.68361076	     -1.33404589	     -3.15336090	    -10.55059302	     14.24077624	     -0.97905578	     -2.18384400	     -0.86556799	     -5.11084865
      0.20000000	      1.29481213	     -1.75744386	      0.28240641	     -1.15026906	      1.07953933	     -0.56848732	     -4.53966989	      2.33201651	     -1.99238520	     -7.38434966	     11.17257028	     -3.25185089	     -3.67938240	     -1.33622577	     -3.15340123	    -10.55015759	     14.24108956	     -0.97866637	     -2.19009018	     -0.86663978	     -5.11357817
      0.21000000	      1.29105653	     -1.75509322	      0.27616028	     -1.15026279	      1.07954095	     -0.56837875	     -4.53877955	      2.33482615	     -1.99305556	     -7.37829194	     11.17185505	     -3.25036792	     -3.67591823	     -1.33829528	     -3.15455087	    -10.55073833	     14.24127313	     -0.97812433	     -2.19390779	     -0.86779693	     -5.11675536
      0.22000000	      1.28768763	     -1.75287368	      0.26922528	     -1.15024721	      1.07954242	     -0.56827061	     -4.53892821	      2.33781933	     -1.99266692	     -7.37185643	     11.17075806	     -3.24864498	     -3.67357257	     -1.34050644	     -3.15757870	    -10.55169338	     14.24147375	     -0.97737999	     -2.19452586	     -0.86930671	     -5.12045874
      0.23000000	      1.27764757	     -1.75151682	      0.26055288	     -1.15019073	      1.07953611	     -0.56817761	     -4.54426531	      2.34077635	     -1.97494396	     -7.34643393	     11.16133605	     -3.23848346	     -3.66631808	     -1.34395596	     -3.18915780	    -10.55108150	     14.24337130	     -0.97182358	     -2.17731366	     -0.86576606	     -5.12865872
      0.24000000	      1.27660343	     -1.74989991	      0.25399304	     -1.15016997	      1.07953840	     -0.56807227	     -4.54436464	      2.34465715	     -1.97405322	     -7.34585783	     11.16064567	     -3.23769267	     -3.66644378	     -1.34634039	     -3.18908931	    -10.55270805	     14.24337335	     -0.97124678	     -2.17673665	     -0.86896943	     -5.12896779
      0.25000000	      1.27583327	     -1.74814539	      0.24632427	     -1.15013722	      1.07953950	     -0.56797498	     -4.54588690	      2.34730932	     -1.97254603	     -7.34437137	     11.16002211	     -3.23686875	     -3.66760013	     -1.34816579	     -3.19050805	    -10.55447915	     14.24335810	     -0.97060331	     -2.17238521	     -0.87076394	     -5.12938520
      0.26000000	      1.27457140	     -1.74632648	      0.23724314	     -1.15009787	      1.07953958	     -0.56787898	     -4.54851267	      2.34933351	     -1.96989247	     -7.34017620	     11.15960173	     -3.23584289	     -3.66890623	     -1.34986932	     -3.19419343	    -10.55608907	     14.24324055	     -0.96981798	     -2.16482559	     -0.87245779	     -5.12957416
